<?xml version="1.0" encoding="UTF-8"?><svg id="Layer_1" xmlns="http://www.w3.org/2000/svg" viewBox="0 0 500 148.35982"><defs><style>.cls-1{fill:#b2dc47;stroke-width:0px;}</style></defs><path class="cls-1" d="m57.152,36.30612C57.152,13.99141,71.3741,0,94.15487,0c16.88197,0,30.87338,7.51356,35.61408,25.20526l-28.56188,1.1581c-3.12123-12.37195-7.0522-15.61088-12.951-14.33979-6.47315,1.38878-6.93451,7.97962-3.12123,27.06011,3.5873,18.03536,7.86664,23.5905,15.26721,21.39199,5.08436-1.50177,6.35545-7.40057,3.70029-21.74036,7.0522-1.1581,15.49318-2.19852,27.17309-3.70029,0,28.10052-19.31116,37.58191-37.12056,37.58191-22.78077,0-37.00286-13.99141-37.00286-36.31082Z"/><path class="cls-1" d="m140.22484,36.30612c0-22.3147,14.22209-36.30612,37.00286-36.30612,22.66308,0,36.88988,13.99141,36.88988,36.30612,0,22.31941-14.2268,36.31082-36.88988,36.31082-22.78077,0-37.00286-13.99141-37.00286-36.31082Zm42.32261,24.40023c6.59084-1.50177,7.51827-7.97962,3.58259-26.25038-3.81327-18.50143-7.51356-24.16485-14.56576-22.54538-6.47785,1.27109-7.28759,7.97492-3.46961,26.47635,3.93097,18.15777,7.51356,23.82118,14.45277,22.31941Z"/><path class="cls-1" d="m287.46893,70.99748h-28.3312c-1.04041-7.51827-2.08082-14.91884-3.23893-22.4324h-9.71207c-.92272,7.51356-1.61946,14.80114-2.4292,22.4324h-26.13268L237.74574,1.61476h27.06011l22.66308,69.38272Zm-33.42027-33.53326c-1.04041-6.47785-2.19381-13.29937-3.58259-20.58225-1.04041,7.28288-2.08082,14.1044-2.89055,20.58225h6.47315Z"/><path class="cls-1" d="m287.85026,36.30612c0-22.3147,14.22209-36.30612,37.00286-36.30612,16.88197,0,30.87338,7.51356,35.61408,25.20526l-28.56188,1.1581c-3.12123-12.37195-7.0522-15.61088-12.951-14.33979-6.47315,1.38878-6.93451,7.97962-3.12123,27.06011,3.5873,18.03536,7.86664,23.5905,15.26721,21.39199,5.08436-1.50177,6.35545-7.40057,3.70029-21.74036,7.0522-1.1581,15.49318-2.19852,27.17309-3.70029,0,28.10052-19.31116,37.58191-37.12056,37.58191-22.78077,0-37.00286-13.99141-37.00286-36.31082Z"/><path class="cls-1" d="m398.90592,30.52501h15.84156c.11769-8.78936.23068-18.27075.57905-28.91025h26.94241l.57905,69.38272h-28.79256c.34837-9.59909.46136-18.8498.57905-28.91025h-15.14952c.34837,9.94746.80973,19.31116,1.1581,28.91025h-28.79256l-.92743-69.38272h26.94241c.34837,10.6395.69675,20.12089,1.04041,28.91025Z"/><path class="cls-1" d="m45.79222,78.74642h20.35157c-.69204,20.46927-15.61088,32.49755-27.86984,32.84122.69675.11769,1.1581.23068,1.38878.23068,16.42061,3.70029,30.06365,21.279,32.84122,36.31082h-28.79256c0-8.78936-6.12948-21.62266-14.57047-23.5905l1.04041,23.5905H1.38878L0,78.74642h27.17309c.34837,11.67991.80973,21.97104,1.2758,31.68782h.69204c10.52181-5.55043,16.65129-18.38845,16.65129-31.68782Z"/><path class="cls-1" d="m134.1801,94.59269c-5.55043-.11769-15.72857-.34837-25.20997-.46607.11769,5.20676.34837,10.17814.46136,15.03182,6.82152-.46136,12.37195-.92272,20.12089-1.73245v11.44923l-19.77252-.34837c.23068,4.85839.34837,9.59909.57905,14.22209,9.02004-.23068,18.50143-.34367,23.82118-.46136v15.84156h-52.03469l-.69675-69.38272h52.73143v15.84626Z"/><path class="cls-1" d="m190.87074,124.42566c-.92272-15.84156-1.38408-31.57013-1.38408-45.67923h20.12089l-2.31621,69.38272h-25.55363c-6.01179-12.14127-12.37195-23.82118-19.42886-37.00286.57905,12.83331.92743,25.44064.92743,37.00286h-20.12089s2.19852-69.26503,2.19852-69.38272h19.77252l25.78431,45.67923Z"/><path class="cls-1" d="m266.30762,124.42566c-.92272-15.84156-1.38408-31.57013-1.38408-45.67923h20.12089l-2.31621,69.38272h-25.55363c-6.01179-12.14127-12.37195-23.82118-19.42886-37.00286.57905,12.83331.92743,25.44064.92743,37.00286h-20.12089s2.19852-69.26503,2.19852-69.38272h19.77252l25.78431,45.67923Z"/><path class="cls-1" d="m346.71588,94.59269c-5.55043-.11769-15.72857-.34837-25.20997-.46607.11769,5.20676.34837,10.17814.46136,15.03182,6.82152-.46136,12.37195-.92272,20.12089-1.73245v11.44923l-19.77252-.34837c.23068,4.85839.34837,9.59909.57905,14.22209,9.02004-.23068,18.50143-.34367,23.82118-.46136v15.84156h-52.03469l-.69675-69.38272h52.73143v15.84626Z"/><path class="cls-1" d="m425.37756,95.28472c-3.93097-.23068-11.91059-.34837-21.16131-.57905.46607,20.23859.46607,36.77218,1.1581,53.65415h-28.79256l.23068-53.76714c-9.36841.11299-17.34333.34367-21.16131.69204v-16.5383h69.72639v16.5383Z"/><path class="cls-1" d="m500,95.28472c-3.93097-.23068-11.91059-.34837-21.16131-.57905.46607,20.23859.46607,36.77218,1.1581,53.65415h-28.79256l.23068-53.76714c-9.3637.11299-17.34333.34367-21.16131.69204v-16.5383h69.72639v16.5383Z"/></svg>