<?xml version="1.0" encoding="UTF-8"?><svg id="Layer_1" xmlns="http://www.w3.org/2000/svg" viewBox="0 0 152.6031 72.61694"><defs><style>.cls-1{fill:#b2dc47;stroke-width:0px;}</style></defs><path class="cls-1" d="m0,36.30612C0,13.99141,14.22209,0,37.00286,0c16.88197,0,30.87338,7.51356,35.61408,25.20526l-28.56188,1.1581c-3.12123-12.37195-7.0522-15.61088-12.951-14.33979-6.47315,1.38878-6.93451,7.97962-3.12123,27.06011,3.5873,18.03536,7.86664,23.5905,15.26721,21.39199,5.08436-1.50177,6.35545-7.40057,3.70029-21.74036,7.0522-1.1581,15.49318-2.19852,27.17309-3.70029,0,28.10052-19.31116,37.58191-37.12056,37.58191C14.22209,72.61694,0,58.62553,0,36.30612Z"/><path class="cls-1" d="m125.29081,1.61711h20.35157c-.69204,20.46927-15.61088,32.49755-27.86984,32.84122.69675.11769,1.1581.23068,1.38878.23068,16.42061,3.70029,30.06365,21.279,32.84122,36.31082h-28.79256c0-8.78936-6.12948-21.62266-14.57047-23.5905l1.04041,23.5905h-28.79256l-1.38878-69.38272h27.17309c.34837,11.67991.80973,21.97104,1.2758,31.68782h.69204c10.52181-5.55043,16.65129-18.38845,16.65129-31.68782Z"/></svg>